<svg width="94" height="53" viewBox="0 0 94 53" fill="none" xmlns="http://www.w3.org/2000/svg">
<path d="M12.9404 42.4299H8.3532V45.7203H7.6422V41.5676H13.3532C13.6743 42.1803 13.9037 42.8611 14.0413 43.6099C14.2018 44.3588 14.2936 45.1303 14.2936 45.9926C14.2936 47.8534 13.6972 49.3284 12.5046 50.3723C11.3119 51.4161 9.66054 51.9607 7.52752 51.9607C5.39449 51.9607 3.72018 51.4388 2.52752 50.3723C1.33486 49.3284 0.738525 47.8534 0.738525 45.9926C0.738525 45.2211 0.807333 44.4949 0.967883 43.7915C1.12843 43.088 1.38073 42.4753 1.70183 41.8853H2.55045C2.22935 42.4753 1.97706 43.088 1.81651 43.7461C1.65596 44.4042 1.56421 45.1076 1.56421 45.8338C1.56421 47.5811 2.0688 48.8746 3.05504 49.7369C4.04128 50.5992 5.5321 51.053 7.50458 51.053C9.49999 51.053 11.0138 50.6219 12.0229 49.7369C13.0321 48.8746 13.5367 47.5584 13.5367 45.8338C13.5367 45.1303 13.4908 44.4949 13.3991 43.9276C13.3073 43.3603 13.1468 42.8611 12.9404 42.4299Z" fill="#FF4D00"/>
<path d="M4.93574 32.4C4.86693 32.5362 4.82106 32.695 4.77519 32.9219C4.72932 33.1262 4.72932 33.3758 4.72932 33.6708C4.72932 34.6466 5.09629 35.4635 5.83024 36.1216C6.42657 36.6208 7.45868 36.8931 8.90363 36.8931H14.0642V37.6646H4.24767V36.8931H6.08253C5.55501 36.6435 5.11923 36.2577 4.75226 35.8039C4.24767 35.1685 4.01831 34.3969 4.01831 33.5119C4.01831 33.285 4.01831 33.0808 4.04125 32.9219C4.04125 32.7404 4.06418 32.5816 4.11005 32.4227H4.93574V32.4Z" fill="#898A8D"/>
<path d="M10.1652 30.3804H4.2478V29.5862H10.1194C11.3808 29.5862 12.2753 29.3819 12.8028 28.9735C13.3304 28.565 13.5827 27.975 13.5827 27.1808C13.5827 26.2731 13.3074 25.4789 12.734 24.8208C12.1606 24.1627 11.1973 23.845 9.79826 23.845H4.2478V23.0508H14.0414V23.845H12.2065C12.8028 24.1173 13.2616 24.5031 13.5597 24.9569C14.0414 25.6377 14.2707 26.3866 14.2707 27.2262C14.2707 28.1792 13.9496 28.9508 13.2845 29.5181C12.6423 30.0854 11.5872 30.3804 10.1652 30.3804Z" fill="#898A8D"/>
<path d="M11.8165 18.3535H17.7568V19.125H4.22472V18.3535H6.47243C5.6238 17.9904 5.02747 17.6046 4.72931 17.1735C4.24766 16.5154 3.99536 15.9027 3.99536 15.3354C3.99536 14.1781 4.47701 13.225 5.41738 12.4762C6.35775 11.7046 7.59628 11.3416 9.15591 11.3416C10.6926 11.3416 11.9311 11.7273 12.8715 12.4762C13.8119 13.2477 14.2935 14.2008 14.2935 15.3354C14.2935 15.9027 14.0412 16.5381 13.5596 17.1735C13.2614 17.5819 12.6651 17.9904 11.8165 18.3535ZM9.15591 12.1358C7.57334 12.1358 6.42655 12.4762 5.73848 13.1342C5.05041 13.7923 4.70637 14.4958 4.70637 15.2446C4.70637 15.9708 5.05041 16.6742 5.73848 17.3323C6.42655 18.0131 7.55041 18.3308 9.15591 18.3308C10.7385 18.3308 11.8853 17.9904 12.5733 17.3323C13.2614 16.6742 13.6055 15.9708 13.6055 15.2446C13.6055 14.5185 13.2614 13.815 12.5733 13.1342C11.8853 12.4762 10.7385 12.1358 9.15591 12.1358Z" fill="#898A8D"/>
<path d="M3.99536 4.46576C3.99536 3.24037 4.45408 2.2646 5.39444 1.53845C6.33481 0.812296 7.57334 0.449219 9.13298 0.449219C10.7385 0.449219 11.9999 0.812296 12.9403 1.53845C13.8807 2.2646 14.3394 3.21768 14.3394 4.46576C14.3394 5.71383 13.8807 6.6896 12.9403 7.41576C12.0229 8.11922 10.7385 8.48229 9.13298 8.48229C7.57334 8.48229 6.31187 8.11922 5.39444 7.39306C4.47701 6.6896 3.99536 5.71383 3.99536 4.46576ZM4.70637 4.46576C4.70637 5.44153 5.09628 6.23576 5.89903 6.80306C6.70178 7.39306 7.75683 7.66537 9.11004 7.66537C10.5091 7.66537 11.5871 7.37037 12.3899 6.80306C13.1926 6.23576 13.5825 5.44153 13.5825 4.46576C13.5825 3.4673 13.1926 2.69576 12.3899 2.12845C11.5871 1.56114 10.4862 1.26614 9.11004 1.26614C7.77976 1.26614 6.70178 1.56114 5.89903 2.12845C5.11921 2.69576 4.70637 3.4673 4.70637 4.46576Z" fill="#898A8D"/>
<path d="M87.4587 21.2581H88.3303L88.9496 23.7542H88.9725L89.5688 21.2581H90.4175V24.6392H89.8899V21.8254L89.1789 24.6392H88.7202L88.0321 21.8254H88.0092V24.6392H87.4817V21.2581H87.4587Z" fill="#0A2240"/>
<path d="M90.9907 21.2581H92.2293C92.7109 21.2581 93.1009 21.5077 93.1009 22.1204C93.1009 22.5515 92.9174 22.8919 92.5274 22.96C92.8486 22.9827 93.055 23.1869 93.0779 23.6634C93.0779 23.8904 93.0779 24.14 93.1009 24.3442C93.1009 24.5031 93.1926 24.5938 93.2614 24.6392H92.6421C92.5733 24.5711 92.5504 24.4804 92.5504 24.3442C92.5274 24.14 92.5274 23.9584 92.5274 23.7088C92.5045 23.3457 92.3898 23.1869 92.0228 23.1869H91.5641V24.6619H91.0137V21.2581H90.9907ZM91.9999 22.7784C92.344 22.7784 92.5504 22.5742 92.5504 22.2338C92.5504 21.8707 92.3669 21.6892 92.0228 21.6892H91.5641V22.8011H91.9999V22.7784Z" fill="#0A2240"/>
<path d="M27.4588 52.3692V32.695H42.8716C42.3212 28.4515 42.2753 25.8873 42.2753 25.8873H27.4588V7.5973H41.3808L44.8212 0.449219H20.0505V3.51268C20.0505 3.51268 20.0505 45.2665 20.0505 52.3692H27.4588Z" fill="#0A2240"/>
<path d="M85.0276 32.2184C82.6881 39.6161 75.8762 45.0169 67.6422 45.0169C57.4358 45.0169 49.5 36.6207 49.5 26.5226C49.5 16.4246 57.7799 8.23264 67.9863 8.23264C73.5597 8.23264 78.3762 10.6834 81.6101 14.5638H90.3487C86.1973 6.50803 77.9633 0.812256 68.101 0.812256C53.7202 0.812256 42.0688 12.34 42.0688 26.568C42.0688 40.7961 53.2386 52.5961 67.5964 52.5961C81.9771 52.5961 93.2844 40.8869 93.2844 26.6815C93.2844 26.3184 93.2844 26.1823 93.2615 25.8192H62.2065V32.2411L85.0276 32.2184Z" fill="#0A2240"/>
</svg>
